<?xml version="1.0" standalone="no"?>
<!DOCTYPE svg PUBLIC "-//W3C//DTD SVG 20010904//EN"
 "http://www.w3.org/TR/2001/REC-SVG-20010904/DTD/svg10.dtd">
<svg version="1.0" xmlns="http://www.w3.org/2000/svg"
 width="300.000000pt" height="300.000000pt" viewBox="0 0 300.000000 300.000000"
 preserveAspectRatio="xMidYMid meet">
<metadata>
Created by potrace 1.11, written by Peter Selinger 2001-2013
</metadata>
<g transform="translate(0.000000,300.000000) scale(0.100000,-0.100000)"
fill="#000000" stroke="none">
<path d="M1291 2654 c-255 -43 -498 -178 -685 -381 l-28 -32 66 -118 c37 -65
71 -125 76 -133 19 -31 108 -187 140 -245 18 -33 44 -80 58 -104 l25 -44 21
64 c56 171 192 308 364 367 40 14 128 17 625 22 l577 5 -56 84 c-262 390 -724
592 -1183 515z"/>
<path d="M453 2052 c-46 -86 -105 -253 -123 -352 -16 -85 -16 -305 0 -400 14
-83 70 -260 101 -323 76 -148 171 -266 319 -398 43 -38 152 -105 225 -139 39
-18 79 -37 90 -43 33 -17 223 -64 232 -58 4 3 14 17 22 31 8 14 62 106 119
205 131 224 169 291 194 335 11 19 24 39 29 45 19 20 7 22 -53 9 -185 -40
-369 15 -503 150 -69 70 -80 87 -335 536 -123 217 -227 397 -230 400 -3 3 -14
22 -23 43 -10 20 -19 37 -20 37 -1 0 -21 -35 -44 -78z"/>
<path d="M1853 1908 c33 -24 96 -106 125 -164 50 -97 67 -271 38 -379 -11 -42
-74 -174 -119 -250 -6 -11 -24 -40 -38 -65 -15 -25 -36 -61 -47 -80 -11 -19
-59 -102 -107 -185 -48 -82 -96 -166 -107 -185 -11 -19 -44 -76 -74 -127 -30
-51 -54 -95 -54 -98 0 -4 -7 -13 -15 -21 -32 -32 -18 -37 98 -31 126 7 141 10
247 38 96 26 115 34 229 92 254 129 451 349 559 623 56 142 78 270 76 449 -2
120 -12 183 -51 318 l-26 87 -381 0 -381 -1 28 -21z"/>
<path d="M1477 1914 c-1 -1 -26 -4 -54 -7 -147 -15 -279 -128 -334 -285 -31
-88 -23 -215 18 -302 79 -163 241 -256 418 -239 210 20 372 188 379 395 8 222
-148 407 -367 433 -31 4 -58 6 -60 5z"/>
</g>
</svg>
